{
	"asset":{
		"generator":"Khronos glTF Blender I/O v3.6.27",
		"version":"2.0"
	},
	"scene":0,
	"scenes":[
		{
			"name":"Scene",
			"nodes":[
				0
			]
		}
	],
	"nodes":[
		{
			"mesh":0,
			"name":"Map",
			"rotation":[
				0.7071068286895752,
				0,
				0,
				0.7071068286895752
			],
			"translation":[
				0,
				-6.639707088470459,
				0.698916494846344
			]
		}
	],
	"materials":[
		{
			"alphaCutoff":0.5,
			"alphaMode":"MASK",
			"name":"material_atlas_00001_1",
			"pbrMetallicRoughness":{
				"baseColorTexture":{
					"index":0
				},
				"metallicFactor":0,
				"roughnessFactor":0.5
			}
		}
	],
	"meshes":[
		{
			"name":"Map",
			"primitives":[
				{
					"attributes":{
						"POSITION":0,
						"NORMAL":1,
						"TEXCOORD_0":2
					},
					"indices":3,
					"material":0
				}
			]
		}
	],
	"textures":[
		{
			"sampler":0,
			"source":0
		}
	],
	"images":[
		{
			"mimeType":"image/png",
			"name":"wood_baseColor0",
			"uri":"wood_baseColor0.png"
		}
	],
	"accessors":[
		{
			"bufferView":0,
			"componentType":5126,
			"count":7557,
			"max":[
				77.31342315673828,
				29.75326156616211,
				70.87155151367188
			],
			"min":[
				-73.16655731201172,
				-106.31680297851562,
				-81.71829223632812
			],
			"type":"VEC3"
		},
		{
			"bufferView":1,
			"componentType":5126,
			"count":7557,
			"type":"VEC3"
		},
		{
			"bufferView":2,
			"componentType":5126,
			"count":7557,
			"type":"VEC2"
		},
		{
			"bufferView":3,
			"componentType":5123,
			"count":12501,
			"type":"SCALAR"
		}
	],
	"bufferViews":[
		{
			"buffer":0,
			"byteLength":90684,
			"byteOffset":0,
			"target":34962
		},
		{
			"buffer":0,
			"byteLength":90684,
			"byteOffset":90684,
			"target":34962
		},
		{
			"buffer":0,
			"byteLength":60456,
			"byteOffset":181368,
			"target":34962
		},
		{
			"buffer":0,
			"byteLength":25002,
			"byteOffset":241824,
			"target":34963
		}
	],
	"samplers":[
		{
			"magFilter":9729,
			"minFilter":9987
		}
	],
	"buffers":[
		{
			"byteLength":266828,
			"uri":"model.bin"
		}
	]
}
