{
	"asset":{
		"generator":"Khronos glTF Blender I/O v3.6.27",
		"version":"2.0"
	},
	"scene":0,
	"scenes":[
		{
			"name":"Scene",
			"nodes":[
				0
			]
		}
	],
	"nodes":[
		{
			"mesh":0,
			"name":"Cube",
			"scale":[
				-1,
				-1,
				-1
			]
		}
	],
	"materials":[
		{
			"doubleSided":true,
			"name":"Material",
			"pbrMetallicRoughness":{
				"baseColorTexture":{
					"index":0
				},
				"metallicFactor":0,
				"roughnessFactor":0.5
			}
		}
	],
	"meshes":[
		{
			"name":"Cube",
			"primitives":[
				{
					"attributes":{
						"POSITION":0,
						"NORMAL":1,
						"TEXCOORD_0":2
					},
					"indices":3,
					"material":0
				}
			]
		}
	],
	"textures":[
		{
			"sampler":0,
			"source":0
		}
	],
	"images":[
		{
			"mimeType":"image/png",
			"name":"City_baseColor",
			"uri":"City_baseColor.png"
		}
	],
	"accessors":[
		{
			"bufferView":0,
			"componentType":5126,
			"count":358,
			"max":[
				83.2232666015625,
				103.24140930175781,
				25.29086685180664
			],
			"min":[
				-78.3239974975586,
				-8,
				-126.94071197509766
			],
			"type":"VEC3"
		},
		{
			"bufferView":1,
			"componentType":5126,
			"count":358,
			"type":"VEC3"
		},
		{
			"bufferView":2,
			"componentType":5126,
			"count":358,
			"type":"VEC2"
		},
		{
			"bufferView":3,
			"componentType":5123,
			"count":642,
			"type":"SCALAR"
		}
	],
	"bufferViews":[
		{
			"buffer":0,
			"byteLength":4296,
			"byteOffset":0,
			"target":34962
		},
		{
			"buffer":0,
			"byteLength":4296,
			"byteOffset":4296,
			"target":34962
		},
		{
			"buffer":0,
			"byteLength":2864,
			"byteOffset":8592,
			"target":34962
		},
		{
			"buffer":0,
			"byteLength":1284,
			"byteOffset":11456,
			"target":34963
		}
	],
	"samplers":[
		{
			"magFilter":9728,
			"minFilter":9984
		}
	],
	"buffers":[
		{
			"byteLength":12740,
			"uri":"city.bin"
		}
	]
}
