{
	"asset":{
		"generator":"Khronos glTF Blender I/O v3.6.27",
		"version":"2.0"
	},
	"extensionsUsed":[
		"KHR_materials_specular",
		"KHR_materials_ior"
	],
	"scene":0,
	"scenes":[
		{
			"name":"Scene",
			"nodes":[
				0
			]
		}
	],
	"nodes":[
		{
			"mesh":0,
			"name":"max"
		}
	],
	"materials":[
		{
			"doubleSided":true,
			"extensions":{
				"KHR_materials_specular":{
					"specularColorFactor":[
						0.24232851121754642,
						0.24232851121754642,
						0.24232851121754642
					]
				},
				"KHR_materials_ior":{
					"ior":1.4500000476837158
				}
			},
			"name":"Material",
			"pbrMetallicRoughness":{
				"baseColorTexture":{
					"index":0
				},
				"metallicRoughnessTexture":{
					"index":1
				},
				"roughnessFactor":0.5
			}
		}
	],
	"meshes":[
		{
			"name":"Cube.001",
			"primitives":[
				{
					"attributes":{
						"POSITION":0,
						"NORMAL":1,
						"TEXCOORD_0":2
					},
					"indices":3,
					"material":0
				}
			]
		}
	],
	"textures":[
		{
			"sampler":0,
			"source":0
		},
		{
			"sampler":1,
			"source":1
		}
	],
	"images":[
		{
			"mimeType":"image/png",
			"name":"maxSternum_baseColor0",
			"uri":"maxSternum_baseColor0.png"
		},
		{
			"mimeType":"image/png",
			"name":"maxSternum_metallicRoughness0",
			"uri":"maxSternum_metallicRoughness0.png"
		}
	],
	"accessors":[
		{
			"bufferView":0,
			"componentType":5126,
			"count":950,
			"max":[
				0.16522717475891113,
				1.9564990997314453,
				0.8119742274284363
			],
			"min":[
				-0.1986699104309082,
				-0.021117210388183594,
				-0.8024066090583801
			],
			"type":"VEC3"
		},
		{
			"bufferView":1,
			"componentType":5126,
			"count":950,
			"type":"VEC3"
		},
		{
			"bufferView":2,
			"componentType":5126,
			"count":950,
			"type":"VEC2"
		},
		{
			"bufferView":3,
			"componentType":5123,
			"count":2727,
			"type":"SCALAR"
		}
	],
	"bufferViews":[
		{
			"buffer":0,
			"byteLength":11400,
			"byteOffset":0,
			"target":34962
		},
		{
			"buffer":0,
			"byteLength":11400,
			"byteOffset":11400,
			"target":34962
		},
		{
			"buffer":0,
			"byteLength":7600,
			"byteOffset":22800,
			"target":34962
		},
		{
			"buffer":0,
			"byteLength":5454,
			"byteOffset":30400,
			"target":34963
		}
	],
	"samplers":[
		{
			"magFilter":9728,
			"minFilter":9984
		},
		{
			"magFilter":9729,
			"minFilter":9987
		}
	],
	"buffers":[
		{
			"byteLength":35856,
			"uri":"model.bin"
		}
	]
}
